<!-- Master 512 px TorRotatingHttpProxy icon: one client arrow, a large square Tor panel, three exits. -->
<svg width="512" height="512" viewBox="0 0 512 512" fill="none" xmlns="http://www.w3.org/2000/svg">
  <rect width="512" height="512" rx="110" fill="#4F46E5"/>

  <!-- One client arrow entering the proxy. -->
  <path d="M32 256H86" stroke="#FFFFFF" stroke-width="22" stroke-linecap="round"/>
  <path d="M86 230L116 256L86 282Z" fill="#FFFFFF"/>

  <!-- Three exit arrows leaving the proxy. -->
  <path d="M404 156H450M404 256H450M404 356H450" stroke="#FFFFFF" stroke-width="22" stroke-linecap="round"/>
  <path d="M450 132L480 156L450 180Z" fill="#FFFFFF"/>
  <path d="M450 232L480 256L450 280Z" fill="#FFFFFF"/>
  <path d="M450 332L480 356L450 380Z" fill="#FFFFFF"/>

  <!-- Large square proxy panel holding the Tor onion. -->
  <rect x="116" y="116" width="280" height="280" rx="62" fill="#FFFFFF"/>
  <path d="M256 173C256 173 189 230 189 292C189 345 219 375 256 375C293 375 323 345 323 292C323 230 256 173 256 173Z" fill="#4F46E5"/>
  <path d="M256 175C258 152 272 138 293 136C286 157 274 171 256 175Z" fill="#4F46E5"/>
  <path d="M256 175C254 152 240 138 219 136C226 157 238 171 256 175Z" fill="#4F46E5"/>
  <path d="M217 279C217 329 233 350 256 350C279 350 295 329 295 279" stroke="#FFFFFF" stroke-width="12" stroke-linecap="round"/>
  <path d="M235 283C235 315 245 329 256 329C268 329 277 315 277 283" stroke="#FFFFFF" stroke-width="10" stroke-linecap="round"/>
</svg>
